<?xml version="1.0" encoding="iso-8859-1"?>
<!-- Generator: Adobe Illustrator 19.0.0, SVG Export Plug-In . SVG Version: 6.00 Build 0)  -->
<svg version="1.1" id="Layer_1" xmlns="http://www.w3.org/2000/svg" xmlns:xlink="http://www.w3.org/1999/xlink" x="0px" y="0px"
	 viewBox="0 0 512.001 512.001" style="enable-background:new 0 0 512.001 512.001;" xml:space="preserve">
<g>
	<g>
		<path d="M346.513,20.513L336.456,5.567l-11.219,6.919c3.381,9.613,6.09,19.037,8.208,27.407
			c7.686,30.366,12.096,64.495,12.096,93.638c0,44.858-20.007,93.491-51.68,115.929c28.691-1.318,51.413-11.299,67.591-29.745
			c17.077-19.469,25.736-47.554,25.736-83.474C387.188,81.585,348.173,22.979,346.513,20.513z"/>
	</g>
</g>
<g>
	<g>
		<path d="M166.457,133.532c0-29.143,4.409-63.273,12.096-93.638c2.118-8.369,4.827-17.794,8.208-27.406l-11.219-6.919
			l-10.057,14.946c-1.66,2.466-40.675,61.072-40.675,115.729c0,35.92,8.659,64.005,25.736,83.474
			c16.179,18.446,38.901,28.427,67.591,29.745C186.464,227.023,166.457,178.39,166.457,133.532z"/>
	</g>
</g>
<g>
	<g>
		<path d="M417.188,261.403c-1.632,0.272-40.444,7.034-81.89,39.003c-19.616,15.13-41.903,37.706-60.557,70.499V259.167
			c-5.979,1.919-12.238,2.952-18.741,2.952c-6.503,0-12.763-1.033-18.741-2.952v111.738c-18.654-32.792-40.941-55.367-60.557-70.499
			c-41.446-31.969-80.258-38.731-81.89-39.003l-27.081-4.515l23.166,109.966c9.433,44.779,31.109,83.932,61.037,110.245
			c25.983,22.846,56.708,34.903,88.124,34.903c5.3,0,26.586,0,31.888,0c31.414,0,62.143-12.057,88.124-34.903
			c29.927-26.314,51.604-65.466,61.037-110.245l23.166-109.966L417.188,261.403z"/>
	</g>
</g>
<g>
	<g>
		<path d="M279.041,0l-23.041,16.584L232.957,0c-16.46,30.316-29.018,85.893-29.018,133.532c0,45.127,26.273,91.104,52.06,91.104
			s52.06-45.978,52.06-91.104C308.059,85.893,295.501,30.316,279.041,0z"/>
	</g>
</g>
<g>
</g>
<g>
</g>
<g>
</g>
<g>
</g>
<g>
</g>
<g>
</g>
<g>
</g>
<g>
</g>
<g>
</g>
<g>
</g>
<g>
</g>
<g>
</g>
<g>
</g>
<g>
</g>
<g>
</g>
</svg>
