<svg id="SvgjsSvg1001" width="288" height="288" xmlns="http://www.w3.org/2000/svg" version="1.1" xmlns:xlink="http://www.w3.org/1999/xlink" xmlns:svgjs="http://svgjs.com/svgjs"><defs id="SvgjsDefs1002"></defs><g id="SvgjsG1008" transform="matrix(1,0,0,1,0,0)"><svg xmlns="http://www.w3.org/2000/svg" enable-background="new 0 0 39.641 39.641" viewBox="0 0 39.641 39.641" width="288" height="288"><path fill="#e27866" d="M10.732 34.285c0 2.964-2.402 5.356-5.371 5.356-2.955 0-5.357-2.393-5.357-5.356 0-2.954 2.402-5.372 5.357-5.372C8.329 28.913 10.732 31.331 10.732 34.285zM22.77 39.342c-1.949 0-3.484-2.75-4.548-5.888-.938-2.766-2.501-5.296-4.618-7.416-2.111-2.117-4.626-3.682-7.369-4.622C3.1 20.341.349 18.81.349 16.867s2.722-3.552 5.939-2.757c9.462 2.337 16.925 9.814 19.255 19.292C26.333 36.62 24.719 39.342 22.77 39.342z" class="color010002 svgShape"></path><path fill="#e27866" d="M36.513,39.342c-1.944,0-3.494-2.708-4.125-5.961C29.833,20.211,19.458,9.807,6.323,7.24
		c-3.252-0.635-5.96-2.182-5.96-4.123c0-1.942,2.701-3.54,5.973-3.017c17.017,2.723,30.49,16.221,33.203,33.267
		C40.059,36.64,38.458,39.342,36.513,39.342z" class="color010002 svgShape"></path></svg></g></svg>